<svg width="16" height="16" viewBox="0 0 16 16" fill="none" xmlns="http://www.w3.org/2000/svg">
<g clip-path="url(#clip0_114_41)">
<path d="M8 0.5C8.27614 0.5 8.5 0.723858 8.5 1V2.25C8.5 2.52614 8.27614 2.75 8 2.75C7.72386 2.75 7.5 2.52614 7.5 2.25V1C7.5 0.723858 7.72386 0.5 8 0.5Z" fill="#0075FF"/>
<path fill-rule="evenodd" clip-rule="evenodd" d="M3.75 8C3.75 5.65279 5.65279 3.75 8 3.75C10.3472 3.75 12.25 5.65279 12.25 8C12.25 10.3472 10.3472 12.25 8 12.25C5.65279 12.25 3.75 10.3472 3.75 8ZM8 4.75C6.20507 4.75 4.75 6.20507 4.75 8C4.75 9.79495 6.20507 11.25 8 11.25C9.79496 11.25 11.25 9.79496 11.25 8C11.25 6.20507 9.79495 4.75 8 4.75Z" fill="#0075FF"/>
<path d="M3.40336 2.69644C3.2081 2.50117 2.89152 2.50117 2.69626 2.69644C2.50099 2.8917 2.50099 3.20828 2.69626 3.40354L3.57751 4.28479C3.77277 4.48006 4.08935 4.48006 4.28461 4.28479C4.47988 4.08953 4.47988 3.77295 4.28461 3.57769L3.40336 2.69644Z" fill="#0075FF"/>
<path d="M0.5 8C0.5 7.72386 0.723858 7.5 1 7.5H2.25C2.52614 7.5 2.75 7.72386 2.75 8C2.75 8.27614 2.52614 8.5 2.25 8.5H1C0.723858 8.5 0.5 8.27614 0.5 8Z" fill="#0075FF"/>
<path d="M4.28459 12.4224C4.47986 12.2271 4.47987 11.9105 4.28461 11.7153C4.08936 11.52 3.77277 11.52 3.57751 11.7152L2.69626 12.5964C2.50099 12.7917 2.50098 13.1083 2.69624 13.3035C2.89149 13.4988 3.20808 13.4988 3.40334 13.3036L4.28459 12.4224Z" fill="#0075FF"/>
<path d="M8 13.25C8.27614 13.25 8.5 13.4739 8.5 13.75V15C8.5 15.2761 8.27614 15.5 8 15.5C7.72386 15.5 7.5 15.2761 7.5 15V13.75C7.5 13.4739 7.72386 13.25 8 13.25Z" fill="#0075FF"/>
<path d="M12.4223 11.7152C12.2271 11.52 11.9105 11.52 11.7152 11.7153C11.52 11.9105 11.52 12.2271 11.7153 12.4224L12.5966 13.3036C12.7918 13.4988 13.1084 13.4988 13.3037 13.3035C13.4989 13.1083 13.4989 12.7917 13.3036 12.5964L12.4223 11.7152Z" fill="#0075FF"/>
<path d="M13.25 8C13.25 7.72386 13.4739 7.5 13.75 7.5H15C15.2761 7.5 15.5 7.72386 15.5 8C15.5 8.27614 15.2761 8.5 15 8.5H13.75C13.4739 8.5 13.25 8.27614 13.25 8Z" fill="#0075FF"/>
<path d="M13.3036 3.40361C13.4989 3.20836 13.4989 2.89177 13.3037 2.69651C13.1084 2.50124 12.7918 2.50123 12.5966 2.69649L11.7153 3.57774C11.52 3.77299 11.52 4.08958 11.7152 4.28484C11.9105 4.48011 12.2271 4.48012 12.4223 4.28486L13.3036 3.40361Z" fill="#0075FF"/>
</g>
<defs>
<clipPath id="clip0_114_41">
<rect width="16" height="16" fill="white"/>
</clipPath>
</defs>
</svg>
